<svg xmlns="http://www.w3.org/2000/svg" height="800" width="1200" viewBox="-36.15 -103.63375 313.3 621.8025"><path fill="#282520" d="M70.863 49.682l-5.713-7.444-1.04 7.962 8.83 48.646-18.697-38.778-9.002-6.579v11.426l29.43 61.629-27.353-41.548-9.348-5.886 1.385 7.964 28.737 45.702-33.93-31.16-11.08-4.848 2.77 8.31 17.311 15.926-4.847-1.385 1.039 4.847L50.78 135.2l-.346 1.73-13.848-10.73-4.5-1.039 1.73 4.155 29.43 26.313-25.62-15.765-6.752-2.337 2.942 5.984 29.95 23.89 1.557-9.002 6.634-4.22 7.964.607 1.385 24.755 40.972-1.06L120.72.17l-3.462 14.196-.693 62.668-9.348-61.63-5.886-6.232-4.5 8.656-5.713-7.27-2.25 9.348 12.117 60.244-17.311-50.896-5.887-5.886-.346 8.31L91.983 80.15 77.441 46.912l-5.54-4.502z"/><path fill="#282520" d="M163.472 46.914l6.146-5.193.865 7.011 4.761-6.405 1.817 9.78-8.569 45.79 19.303-39.124 8.05-5.367V63.88l-29.257 62.754 27.353-42.587 9.001-4.847L200 89.155l-26.313 41.114 35.921-31.247 8.31-1.731-4.068 8.31-16.533 14.627 5.453-.432-1.558 4.587-22.591 24.064 24.582-22.332 5.194-1.905-1.645 5.54-26.313 24.236 22.072-15.06 7.444-1.559-2.684 6.665-30.056 23.195-.493-7.74-8.835-6.02-7.097.606-1.291 25.272-37.652-1.038L120.713 0l3.029 13.416 1.558 64.486 9.002-63.014 5.367-6.146 3.635 7.53-3.03 23.717 4.415-22.937 5.453-5.973 1.645 7.704-10.214 62.408 15.753-50.81 5.887-6.318 1.384 8.31L149.45 81.19z"/><path fill="#1a1810" d="M62.193 180.98l2.77.46-9.911 70.035-10.934.006-9.548-.006 8.696-25.486 6.694-22.851 5.078-17.081 3.462-3.462zm117.719.922l-4.518.408 11.858 69.16 11.34.014 9.16-.014-8.913-24.558-6.693-22.85-5.078-17.082-3.463-3.462z"/><path fill="#1f1c1a" d="M120.333 251.47l-76.312.005 15.59-45.297 3.462-18.696.142-27.85 13.534-.195-1.904 44.318h46.048z"/><path d="M75.133 193.598c1.154 0 89.932-.67 89.932-.67l1.704 11.75-92.56.346z" fill="#221f1d"/><path fill="#4f4645" d="M168.634 154.127l-7.387.346 3.925 5.193 11.636-.15z"/><path fill="#38332f" d="M161.247 154.473l-1.73 25.217 6.058 14.888-.403-34.912z"/><path fill="#1f1c1d" d="M62.92 156.302l-1.905-1.904 3.29-3.635-5.886-7.271.865-.866 4.847 5.713 1.904 1.558 6.233-4.328 1.904 2.424-4.5 3.29 23.37 30.987-4.675.346-21.812-29.084zm9.867-37.22l3.808 14.37-1.038 4.5 14.715 21.986-9.175-26.314 3.289-.52-.693-3.635-4.5.347-3.463-11.08zm88.982 5.021l-1.386-1.385 1.212-1.558 3.982 2.77-.692 1.384-2.078.52-3.635 9.521 4.328 10.906-8.137-1.038-6.059 17.312 2.597-20.255 2.424-8.829 3.116 1.212zm-19.909 58.859l6.406-.346 14.541-16.273-2.77-5.367zm22.851-86.558l.347-1.904-4.848-2.25.012-.167 1.893-9.874 1.73-1.558-3.375-.866.304 1.823-.38 2.075-1.978 8.528-5.13-.481-.866 2.943 4.847 1.212-8.655 28.737 2.77 7.617 2.77-9.002 6.058-26.833zm-20.081.866l-13.503-3.116-.549-4.328h.376V76.929a24.004 24.004 0 002.164-1.818c.346-.433-5.54-.26-5.54-.26l1.472 2.164v12.811h.411l-.065 4.847-14.023 2.424 1.732 2.943 11.079-1.212.173 27.698 3.809.866-.693-29.083 11.945 2.77zm-47.607-5.194l5.194-.519-.52-15.407 1.904-.174 1.559 13.85 5.193 1.212-.692 4.847-2.424.693.346 21.985-3.462 1.558-1.904-24.236-4.848-.346z"/><path d="M102.217 80.391l-1.385-1.125-.087-1.645s.26-1.471.52-1.471 2.337-.173 2.337-.173l.692 3.722zm-11.426 38.345c0-.692-3.462-14.888-3.462-14.888l-9.002.693v-2.943l8.656-1.212-2.597-17.658 1.731.173 2.424 8.137 3.116 7.444s6.751-2.078 7.27.173a4.021 4.021 0 01-.865 3.635l-4.501.866-.52 15.407z" fill="#1f1c1d"/><path fill="#1f1c1d" d="M87.675 84.373L87.07 82.9l-2.683-.173-1.645 1.645 1.299 1.99 1.211.174 1.558-.606z"/><path fill="#35302c" d="M137.253 178.537l7.617.347 27.352-32.95 5.194 3.982 1.73-1.731-5.366-5.367 8.31-10.907 1.327-.75.23-1.096-.576-1.328-1.155-.403-1.038.461-.635 1.5-9.175 10.041-5.597-5.193-2.424 2.77 4.5 3.635z"/><path fill="#35302c" d="M147.466 84.304l1.991-.26 2.857 1.04-1.039 2.25-1.471 1.818-.952 14.715 9.261 3.549v3.548l-9.175-.865-11.598 68.785-6.838-.232 11.598-69.851-9.175-1.559-.087-2.336 10.993-1.472 4.155-15.408zm-20.34 93.57l-2.597-76.085 3.895 2.078-.52-5.02-5.366-1.386-1.039-14.108 2.078-.606-2.164-1.991-2.078-.087-2.337 2.683 1.731.087.174 14.455s-5.8 2.078-5.886 2.337c-.087.26.519 4.242.519 4.242l3.982-2.078 2.77 75.652zm-22.882.886l4.847-.259-11.222-70.047 7.097-1.212-.951-2.856-7.618.606-1.99-14.455 1.384-.606-1.73-2.683-5.28 1.212-.087 3.288 1.73-.519 2.511 14.369-8.136 1.471.779 2.943 7.184-.779zm-6.232-2.942l-1.7-11.88-18.698-30.468 3.722-2.424-.778-1.904-4.934 1.99-8.916-12.118.692-.52-1.817-2.163-1.99 1.298 1.124 3.203.866-.432 7.357 12.464-3.895 3.549 1.039 1.73 3.895-2.163z"/><path fill="#1a1815" d="M120.796 151.242l-2.539.577-3.174 1.384-1.789 1.385-.173 2.25h5.829l1.047 21.49 6.406-.086.049-21.923h5.366l.346-2.25-4.04-2.366-3.75-.577-.577-12.695.635-.808.057-1.154-1.673-1.097-1.27-.115-1.385.635-.865 1.039.577 1.212.635.461zm19.542 27.518l7.233-39.002-6.694-1.039.866-4.962 8.252 1.327 3.808-16.908-1.5-.403 4.04-4.444 1.673 5.54h-1.154l-3.231 16.792 7.559 1.385-.693 5.136-7.732-1.616-6.348 38.085z"/><path fill="#1a1815" d="M112.034 178.501l4.588-.173-3.154-57.555 6.462-.577-.577-5.309-6.347.577-3.347-19.735 1.5-.462-.346-2.654-5.886.462.346 2.654 1.847-.115.692 20.196-7.27.924.692 4.962 7.27-.807z"/><path fill="#1a1815" d="M104.466 133.815l-1.732-4.328-6.578.52-2.078-8.31-.692-3.117-2.424.173 1.732 12.465-7.79 2.597-.346 3.462 8.655-1.731 5.318 43.388 5.799-.26-6.962-43.302z"/><path fill="#1c1917" d="M128.653 178.328l6.405.087 1.244-49.977 2.25-.173 2.597-4.848-6.751-.519-.52-17.83h1.732l.692-5.194h-6.579l-.173 5.193h2.77l-1.211 17.658-7.445.692 1.558 3.982 3.29.866z"/><path fill="#48413e" d="M75.247 193.822l89.818-.577-5.394-14.073-37.74-.865-40.538 1.147z"/><path fill="#221f1d" d="M120.738 204.965l.174-11.252 44.124.023.867 10.538z"/><path fill="#4f4645" d="M167.98 153.378l-7.385.75 4.057 5.538 12.271-.15z"/><path fill="#1f1c1a" d="M179.598 207.156l13.122 44.328-72.5-.01.123-46.745 44.837-.376-.52-44.75 12.32-.173z"/><path fill="#38332f" d="M160.652 154.186l-1.655 25.504 6.01 13.613-.355-33.637zm-79.087 25.441l-1.644-24.842-3.55 4.847-1.297 34.623z"/><path fill="#4f4645" d="M63.302 159.545l7.357-5.713 9.695.78-3.722 5.02z"/><path fill="#282520" d="M90.183 251.475l-3.164-33.936 3.549-8.396 3.289 7.617 4.073 34.71zm21.494.005l-1.201-32.556 3.375-10.82 3.896 9.348 2.348 34.029zm21.131-34.46l-3.03 6.838 1.558 26.14 6.578-.086-1.904-27.007z"/><path fill="#151515" d="M154.476 212.288l2.308 1.385.346 2.885 6.579.808-.231 2.308-5.655-.346-1.154 5.886-2.886-.231.347-5.078-6.117-1.5.577-2.424 4.963.577zm-73.244 9.836l-3.231-.462h-4.04l-.115-2.77 3.462.116 1.5-1.616-.115-6.347-1.385-1.616.346-1.846 1.5-.347 1.847.231 1.154 2.193-1.269 1.385.577 8.078 4.385-1.038.577 2.885zm20.774 8.771l-.577-7.27-.346-1.616-2.655.115-.346-3.116 3.116-.23.115-6.464-1.038-1.154v-1.5l1.615-.462 1.732.808.115 1.385-.693.923.116 5.886 4.5 1.385 2.425.924-.462 2.423-5.309-.23.808 7.501zm24.597 20.58h-2.981l-.727-26.581-3-2.54v-1.384l3.462.23v-10.5l-2.308-.347.115-1.615 6.233.23-.116 1.962-2.424-.115.577 9.925 5.194.808-1.039 2.655-3.809.808zm13.735.005l-5.355-.005.492-32.467-2.193-.346 1.5-3.809 1.963-.115-.116-5.31-1.27-.345v-1.5l4.27.23-.345 1.385-1.155.23.347 5.31 1.5.115 1.846 3.463-2.077.23z"/><path d="M47.203 214.154l-3.03-7.704s2.77-.346 2.683-.952c-.086-.606-5.193-16.88-5.193-16.88l4.501-.692 5.28 14.629-3.376 11.772z" fill="#12100d"/><path d="M49.155 251.475l3.76-35.763 3.203-7.358s2.683 5.453 2.857 6.06c.173.605-1.538 37.072-1.538 37.072zm12.253 0s.942-40.697 1.202-40.957c.26-.26 4.241-5.8 4.241-5.8l4.328 5.714.351 41.043z" fill="#2e2925"/><path fill="#12100d" d="M87.527 251.486l-4.23-29.37-3.981-5.106-4.069 6.319 1.455 28.152zm2.613-.011l-3.034-21.655.692-7.53 5.02 5.713 5.329 23.483zm13.785 0h7.027l-.043-2.785h1.818l-.173-3.462-2.857-.173-1.817-8.223.692-.433-.692-3.03-3.982.347.087 2.423.865.173.52 9.002-4.242.52.26 3.289 2.077-.087z"/><path fill="#12100d" d="M124.932 242.501l-3.809.26v8.72l-5.708-.006-.091-7.848-3.29-.174-1.99-2.942h6.319l.606-10.215-.866-1.817.173-1.991 2.077-1.558 1.818 2.164.346 1.385-.779 1.558.347 10.04 5.28.26v1.212zm8.768 8.985l-5.496-.011-.33-1.616-3.462-1.472v-1.471l4.242.433 1.212-9.176-.866-.433.52-4.24 5.279.778-.605 4.588-1.04-.173-.26 9.001 4.848 1.472-.346.78h-3.29zm25.767 0l-6.177-.011-.4-24.078-2.338-.346-.345-4.155 4.24-.173.088-10.04-2.078-.174.346-5.886 5.8.26-.087 5.886h-.952l-.173 9.607 3.289.087.26 4.934-1.905.346z"/><path fill="#0e0b0a" d="M196.493 251.475l-7.076-24.77-5.193-6.839-1.732 10.214 5.756 21.395z"/><path fill="#171412" d="M70.89 217.616l-5.308-10.503 1.615-27.352-2.192-.115v-3.578h2.423l.693-8.771-1.847-.23.462-5.425 6.463.115.115 6.002-2.308-.232-.346 8.541 3.578.23-.231 3.001-2.309.347z"/><path fill="#12100d" d="M150.58 251.48l-1.412-31.354-4.155-3.982-4.241 4.328-.759 31.014z"/><path fill="#110e0e" d="M95.07 223.242l1.038 11.426 4.068 10.127 2.164-4.588-2.424-16.878h2.51l-.086-3.463-3.636-.779-.778-7.357 1.904-.173-.606-4.761-5.02.087-.78 5.106 1.472-.26.692 7.79-3.288.953-.174 2.943z"/><path d="M168.903 242.631c0-.433-.087-14.195-.087-14.195l-2.856-3.722-3.549 3.808-1.137 22.953 7.904.006zm-2.597-73.315l.26 4.155 1.645.173 1.644 40.163 6.06 9.954.865-2.423-2.51-47.867 1.471-.26-.433-4.154-2.51-.173-.52-3.462.433-1.126-.26-1.298-.778-.952-1.645-.087-1.039 1.039v1.818l1.212.952-.26 3.376zm34.884 68.496l3.808-3.808.923.923 2.077-2.77-2.077-3.116-3.231 1.27.577 1.154-4.617 3.347-.923-2.308-3.463 2.539 4.732 8.54 3.116-3.924zm-7.618-18.696l-2.424-2.077-2.77-.577-.923 1.5 4.155 4.732-3.578 1.385 2.54 5.309 1.961-2.078.808 3.924 3.347-1.038-1.154-5.771 9.348-4.847h1.847l1.846-1.847-.461-2.077-2.193-.923-2.654.807-.347 1.385.462.693-7.357 3.27-.953.423z" fill="#0e0b0a"/><path fill="#0e0b0a" d="M195.765 210.691l3.116.347-.23 4.039-1.848.461-.807 10.387-2.54-2.654-2.077-13.734.577-5.886 4.155.462zm-17.543-18.351l3.463-5.193-2.424-1.73 2.54-3.81 2.769 1.847 3.693-5.309-.346-1.27.692-1.384 1.847-.115 1.154.807.346 1.385s-.346 1.385-.692 1.5c-.346.116-1.154.347-1.154.347l-2.309 5.54 3.117 2.654-2.078 3.347-2.885-1.385-4.04 5.77z"/><path fill="#282520" d="M53.175 172.087l1.039 4.414 2.077-.433 1.731 8.57 5.367-2.597-.173-13.07-1.472.345-1.212-4.673-4.414-3.29 1.904 9.262z"/><path fill="#2e2925" d="M56.465 194.678l1.73 2.856-1.557 8.57-5.021-8.483-2.77 1.558-2.077-2.856 3.376-2.597-4.155-9.608-.952.433-2.597-3.376 5.28-2.683 2.078 3.722-.866.692 5.107 8.223 4.328-2.51 1.557 3.376zM41.403 208.44l-3.462 3.463-12.291-1.99-.606 2.682 10.993 5.54.52 5.367 4.24-.433.26-2.51 7.704 2.597 1.211-8.916-6.405-2.164.952-1.298z"/><path fill="#2e2925" d="M45.731 234.495l-1.644 5.28-6.925-5.713-1.471 2.077-4.155-3.635 2.596-2.857-6.491-7.01-1.039.865-2.337-1.991 3.462-3.463 2.337 2.165-.952.951 7.444 5.887 2.684-2.337 3.202 3.462-1.298 1.298z"/><path d="M180.27 209.933l2.423.347 2.077 1.961 1.27 1.616 1.5-2.77-1.038-2.192-3.001-2.655-1.385-1.154 1.5-11.541.808-.346.462-1.731-.346-1.5-1.385-1.27-1.27.577s-.923 1.846-.808 2.193a6.214 6.214 0 01.116 1.27l-2.655 8.424z" fill="#2d2823"/><path fill="#2d2823" d="M201.043 188.12l-.923 1.386-.231 1.73-2.654 1.848-2.424 1.846-1.731 1.5-1.154 1.385-2.193-1.27-2.193-.922-1.962-.693.116 2.885 2.654 1.385 2.193 2.078 1.731 3.346.462 3.463 3.462-.693-.577-3.231-1.616-3.809 4.155-2.77 2.539-1.961 1.5-1.847 2.54-.115 1.5-2.424-.347-2.193-1.73-1.385z"/><path d="M181.745 251.475l-7.995-34.465s-4.068-5.713-4.068-5.367c0 .347-1.386 6.848-1.386 6.848l7.012 32.995z" fill="#2e2925"/><path fill="#23211c" d="M102.513 239.208l-3.81-4.386 31.623-21.351 1.27-3.809-3.347-.577-32.2 22.159-3.346-4.501-1.5.923.345 7.04-7.501 6.348-1.385.115-1.27.693.116 1.616 1.154 1.269 1.385-.115.807-1.386 8.656-6.462 8.08 3.923z"/><path fill="#23211c" d="M173.028 243.824l-1.73.23-10.272-5.655 1.384-4.27-2.423-1.731-.693 2.077-.577 2.193-41.086-19.85-5.078-.462.692 3 43.741 22.39-1.038 2.193-2.078 1.5.692 1.385 2.309-1.038 1.5-1.385 1.154-2.077 10.503 4.27 1.038 1.846 1.847.693 1.731-.924.923-1.962-.692-1.73z"/><path opacity=".55" fill="#828485" d="M31.783 138.392l4.4 2.568 26.946 17.374 1.428-.866-27.97-17.345zm1.299-12.422l2.87 1.833 17.312 13.85-2.698-3.824-14.022-10.993zm10.415-4.298l-4.27-1.155 4.155 3.232 2.54.693zM24.599 98.143l42.976 35.705-33.541-31.334zm14.037-17.817l26.17 33.137-17.832-27.309zM52.34 62.827l-5.885-6.578 6.578 4.847 22.852 48.126zm20.775 70.227l1.788-.173.577-1.385 4.848-1.962.23.808-10.502 6.751-.404-.519zm-7.675-16.158l-1.385.982.404.865 1.616-1.154zm27.698 15.754l-8.02 2.886.23-1.443 7.733-2.308 3.635-.808 5.598-.635.577 1.443-5.887.057zm25.852-15.869l-6.232.404-1.5 1.097-3.059-1.04-6.751 1.098-.173-1.04 7.098-.865 2.539.404 1.789-.75 6.116-.635zM94.639 89.025l-5.54 1.039.058-1.154 4.559-.982z"/><path opacity=".86" fill="#828485" d="M103.64 104.894l.347 1.097-18.35 2.654-.231-1.039 8.02-1.442 3.348-.578z"/><path opacity=".55" fill="#828485" d="M110.335 93.382l-4.675.173.174 1.038 4.673-.346zm24.755 8.483l-4.414.172.086-1.298h4.588zm-10.473 22.331l7.01-.432 1.818.519s.52-.52.78-.52 5.885.174 5.885.174l-.692 1.558-4.76-.346-1.472.692-1.472-1.212-6.492.606zm7.79 30.901l.173-.951-5.886-1.818-2.337-.433h-3.635l-3.982.952-3.722 2.337 1.125.606 3.549-2.25 3.722-.78 3.03-.086zm-8.483-18.177l-.606.78-1.125-1.213-2.164.52.952-1.039h1.472zm18.004-.692l.173-1.472 18.09 2.857-.259 1.645zm12.205-19.476l2.077-2.077.606 3.03zm-32.027-34.103l-3.722.086 1.126-1.385 1.298-.086zm-8.049 19.821l-.26-1.558 5.54-2.597 2.423-.26 6.578 1.992v1.384l-6.404-2.163-2.684-.173z"/><path d="M136.388 104.72c.606-.086 7.531-.865 7.531-.865l4.847.433 9.348 3.116-.346 1.212-9.088-3.29-4.848-.259-7.53.952z" opacity=".7" fill="#828485"/><path opacity=".55" fill="#828485" d="M148.333 84.467l1.818-.347.866.26.173 1.471-2.424-.346zm17.572 51.242l5.106 4.76 7.271 7.011-.432.693-12.811-11.08zm15.84-6.925l1.298-.087.78 1.04-.26 1.038-1.212-.52zM65.67 47.246l-.173-2.596 5.367 6.232-.173 1.731zm10.215 2.251l-3.117-4.674 3.982 3.116 15.234 35.835z"/><path opacity=".49" fill="#828485" d="M164.866 193.53v-1.212l-88.927.206-.606 1.471z"/><path opacity=".55" fill="#828485" d="M95.447 20.067l-3.982-7.097 5.02 6.405 14.022 62.148zm9.521-3.462l-3.116-5.713 4.426 4.837 9.423 61.813zm-21.812 12.81l-4.663-4.424 3.624 4.944 17.83 52.108zm77.728 125.163l7.04-.346 8.714 4.963-8.598-5.771-7.444.866z"/><path opacity=".3" fill="#828485" d="M58.685 226.166l-1.154-12.233-1.384-2.77-3.463 5.309 3.463-7.849 3 5.078z"/><path opacity=".49" fill="#828485" d="M131.423 210.008l-3.29-.779-32.112 22.073.346.606 31.767-22.16zm-47.088 31.681l-.346-.52 7.617-6.318.433.606zm7.012-12.897l-.13-1.083 1.45-.93.54.692zm22.13-12.32l3.75.057-.98.866zm8.309 2.538l1.096-.404 35.605 18.178-.116.865zm37.913 14.484l.345-.923 2.366 1.616-.288.923zm1.327 5.771l10.271 5.482 2.135-.173 1.53.029-1.876-.606-1.847.058-10.04-5.482z"/><path opacity=".3" fill="#828485" d="M94.26 208.724l.29-1.63h4.385l.13 1.63zm4.314 10.33l-2.986.39-3.318 1.067.05.858 10.063-.368-.109-1.06z"/><path opacity=".49" fill="#828485" d="M25.562 210.744l.13-.866 12.118 1.991-.26 1.126z"/><path d="M40.797 209.23l2.77 2.856s1.125-1.212.779-1.385c-.347-.173-2.857-2.337-2.857-2.337zm3.549 4.587l.39-1.212 5.323 1.731-.26 1.558z" opacity=".3" fill="#828485"/><path opacity=".49" fill="#828485" d="M28.246 218.577l-3.376 3.42-.563-.476 3.42-3.506zm4.024 14.586l-.692-.693 7.617-7.79.823.822z"/><path opacity=".3" fill="#828485" d="M45.038 208.45l-.346-1.558 6.232-3.116-.346 1.731z"/><path opacity=".49" fill="#828485" d="M41.633 188.586l4.501-.664.809 2.005-4.733.418-.288-.937"/><path opacity=".3" fill="#828485" d="M43.754 182.57l-.866-1.255 4.675-2.38.519 1.038zm4.097 15.234l-1.067-1.472 11.512-7.746.707 1.5z"/><path opacity=".49" fill="#828485" d="M57.474 184.92l-2.496 1.14-.721 2.742 1.86-2.337 3.636-1.4 3.39-1.24.216-1.746zm-2.568-11.092l-.174-1.04 8.83-2.943v1.386z"/><path opacity=".3" fill="#828485" d="M75.268 223.382l4.047-6.232-3.03 6.361-.54 8.31zm7.163-.39l-1.666-4.198 2.553 3.333 1.342 9.76zm5.929 1.212l-1.212 4.328.693-6.233 3.03 3.463zm22.808 18.004l-.346-1.212 14.542-.52-.52 1.04zm5.367-14.888l1.234-1.46.67-.79 1.904 2.596-1.904-1.212zm13.675 8.137v-1.04l3.81.693-.347 1.039zm38.043-6.839l.563 10.647v-10.733l-2.77-3.636-3.592 3.766-.216 4.5.476-4.11 3.245-3.636zM65.61 209.388l-2.077 5.078-1.154 32.084-.924.693.924-33.008 3-7.386 5.54 10.849.23 18.004-1.384-17.543z"/><path opacity=".49" fill="#828485" d="M195.447 236.178l-.548-.895 2.394-1.904.664 1.298zm7.992-5.569l.693 1.385 1.384-.865-.173-1.04z"/><path opacity=".3" fill="#828485" d="M181.626 183.868l.173-.865 7.79 4.847-.345.865z"/><path opacity=".49" fill="#828485" d="M166.97 170.827l-.059-1.126 7.762-.172.057 1.067zm26.601 30.526l-1.992-3.192-4.385-2.193-.893 1.23 3.635 1.212 2.77 2.943zm-.461-3.693l.836.288 6.203-4.385-.865-1.04-3.462 2.078zm11.973-7.693l-1.154-1.454-2.597.26-.778 1.558 2.25-.693 1.731 2.078z"/><path opacity=".3" fill="#828485" d="M150.783 224.435l-.029-1.125 9.493-.289-.116 1.24zm2.279-15.638v-1.04l4.674.174v1.039zm-3.289 23.515l-.634-12.186-4.155-3.982-4.127 4.338-.26 7.098.838.375.519-6.521 2.943-3.462 3.116 2.943.865 10.906zm34.248 2.828l-1.53-4.992 1.704-10.08 5.193 6.838s2.596 9.099 1.73 7.54c-.865-1.557-2.942-7.79-2.942-7.79l-3.462-4.5-.693 6.924zm-14.513-16.88l2.77 18.697-3.981-18.524 1.385-6.847 4.125 5.492 5.915 25.246-6.752-23.718-2.423-4.328zm18.524-1.452l-.087 1.25 3.03.606 2.423 3.116 2.25 6.752-.46-3.76-1.01-3.598-3.376-3.789z"/><path opacity=".49" fill="#828485" d="M196.341 222.473l-.52-.78 6.925-3.202.174.606zm7.502-6.579l1.904-.519 1.904.952-2.077-.086-1.126.692-.519 1.125-.432-1.125zm-19.475-25.246l-1.617.116-.778 1.442-.318-1.01.808-1.5.952.174z"/><path opacity=".52" fill="#828485" d="M202.227 141.96l-20.644 12.782 20.413-14.398 6.377-1.4zm-23.414 6.895l23.913-21.658 4.262-1.626-1.169 1.731-2.597.606zm21.467-26.53l-3.347.087-5.886 4.04 5.706-5.185 4.738-.413zm15.017-22.072l-5.583 1.515-35.647 28.954 35.344-30.599 7.012-1.558zm-21.336-15.191l-26.357 41.274 27.655-39.932 6.102-5.324zm-6.059-25.188l6.795-4.458-5.713 5.713-22.073 42.817zM174.486 43.86l-.91 3.247-2.51 3.981-1.154-.692zm-9.436 5.324l3.506-5.41-4.804 4.112-12.074 27.67zm-7.487-17.874l4.804-5.41 1.255 7.141-.635 1.89-1.154-7.387-3.462 4.386-16.85 49.165zm-12.551-13.33l4.501-5.367-2.467 6.016-12.68 56.696zm-8.698-1.515l3.008-7.377-4.524 6.555-9.665 63.836zm-17.788-.605l-1.933 60.619.807-60.836 3.022-12.851 2.302 11.293 1.716 61.932-2.928-61.716-1.125-8.699z"/><path opacity=".3" fill="#828485" d="M181.973 207.239l-2.202-.37-.8-2.862 1.155.462 2.539 1.731 2.654 2.54 1.616 2.192-.23 1.154-1.963-2.655z"/><path d="M65.408 176.424c.173.058 8.483.173 8.483.173l-.116.923-8.425-.115z" opacity=".49" fill="#828485"/><path opacity=".55" fill="#828485" d="M67.024 164.306l.115-2.02 5.54.173.058 1.904z"/><path opacity=".49" fill="#828485" d="M188.868 177.001l-.26 1.039-.288-1.096.49-1.04 1.501-.115 1.183.549-1.5.086-.953.029zm-18.956-13.618l-.433 1.269-.028-1.5.75-.808h1.269l.722.866-1.039-.462-.894.029z"/><path opacity=".55" fill="#828485" d="M180.01 131.356l-.173-.461-8.31 8.944.578.461zM70.919 154.958l-7.357 4.5 7.097-5.539 9.608.779z"/><path d="M68.693 334.119q-1.363.764-1.362 2.69v16.811c0 .045-.045.111-.134.2a14.465 14.465 0 01-3.488 1.927 21.369 21.369 0 01-3.92 1.097 31.922 31.922 0 01-4.054.464q-2.027.1-3.954.1-2.924 0-5.913-.2a23.312 23.312 0 01-16.644-8.538 26.653 26.653 0 01-4.552-8.24 29.611 29.611 0 01-1.595-9.733 24.45 24.45 0 012.127-10.466 21.913 21.913 0 015.814-7.641 25.049 25.049 0 018.604-4.652 34.516 34.516 0 0110.5-1.561 55.15 55.15 0 016.013.332q3.021.334 5.946.731 1.328.2 2.625.399 1.295.2 2.625.332a.235.235 0 01.265.266q-.134 2.392-.465 4.685-.334 2.292-.664 4.618-.067.465-.133.896c-.045.289-.09.565-.133.831 0 .133-.078.21-.233.233a.24.24 0 01-.3-.167 12.874 12.874 0 00-1.926-4.916 12.597 12.597 0 00-3.422-3.422 14.324 14.324 0 00-4.55-1.994 21.565 21.565 0 00-5.25-.631 23.487 23.487 0 00-8.539 1.528 20.888 20.888 0 00-6.877 4.286 19.997 19.997 0 00-4.618 6.644 21.141 21.141 0 00-1.694 8.54 24.635 24.635 0 001.86 9.534 25.036 25.036 0 005.083 7.84 23.888 23.888 0 007.642 5.317 23.245 23.245 0 009.535 1.96 20.632 20.632 0 004.452-.499 7.45 7.45 0 003.853-2.16v-14.95q0-1.594-.996-2.16a11.78 11.78 0 00-2.26-.963 9.682 9.682 0 01-1.062-.332 5.803 5.803 0 01-1.064-.532c-.132-.088-.177-.187-.132-.299a.258.258 0 01.265-.166q3.986 0 7.874.067 3.887.068 7.874.266l.067.532a10.2 10.2 0 00-3.09 1.096zm34.984 17.641q-.833-.065-1.761-.133-.534-.066-1.097-.099-.565-.034-1.162-.034-1.531 0-3.057.134l-3.057.265a.26.26 0 01-.265-.199.268.268 0 01.132-.332l2.591-1.262q-1.13-3.124-2.358-6.147-1.23-3.022-2.359-6.213H80.985q-.333.865-.963 2.558-.634 1.694-1.23 3.522-.598 1.829-1.063 3.455a9.831 9.831 0 00-.465 2.36 1.232 1.232 0 00.863 1.294 10.23 10.23 0 001.662.433v.531q-1.263-.132-2.592-.233-1.329-.1-2.657-.098-1.33 0-2.658.098-1.33.1-2.658.233c-.132.045-.21-.021-.233-.199q-.033-.265.167-.332a6.07 6.07 0 005.116-3.854v.066q1.926-4.849 3.72-9.701 1.796-4.85 3.523-9.768 1.196-3.322 2.326-6.612 1.128-3.288 2.391-6.61a.277.277 0 01.532 0q.332.93.698 1.826.364.898.697 1.828 2.725 7.442 5.682 14.95a146.031 146.031 0 006.744 14.684 5.024 5.024 0 002.027 2.193 7.116 7.116 0 002.823.797v.532a7.828 7.828 0 01-1.76.067zm-17.51-30.034q-1.13 3.524-2.158 6.878-1.031 3.356-2.293 6.944h8.572zm67.222 30.1h-5.382q-2.66 0-5.25-.132c-.265 0-.355-.111-.265-.333a1.456 1.456 0 00.099-.265 1.235 1.235 0 01.1-.266l.398-1.196a3.591 3.591 0 00.2-1.13q0-3.787-.367-7.475-.366-3.687-.83-7.408-.267-2.26-.498-4.02-.235-1.76-.366-4.087-2.525 4.85-4.85 9.701-2.326 4.851-4.651 9.834-.798 1.662-1.562 3.288-.765 1.63-1.562 3.29a.212.212 0 01-.199.133.377.377 0 01-.265-.133 64.717 64.717 0 01-5.284-8.67q-2.226-4.418-4.218-8.872-1.065-2.325-1.895-4.22-.83-1.892-1.96-4.152-.2 1.662-.398 3.223-.2 1.562-.399 3.09-.532 4.12-.93 8.172-.399 4.054-.399 8.24a1.891 1.891 0 00.598 1.627 6.37 6.37 0 001.462.765 6.595 6.595 0 00.73.298c.31.112.51.189.599.233a.27.27 0 01.133.332.262.262 0 01-.266.2c-.621 0-1.23-.01-1.827-.034q-.897-.033-1.827-.1-.931-.065-1.861-.1-.931-.031-1.86-.032h-1.33a7.509 7.509 0 00-1.329.133c-.133.045-.222-.022-.266-.2-.044-.176 0-.287.134-.331a3.627 3.627 0 01.798-.133 10.697 10.697 0 001.262-.3 1.96 1.96 0 00.996-.896 7.608 7.608 0 00.366-1.728q.232-1.528.531-3.887.3-2.358.665-5.349.364-2.99.698-6.113.33-3.122.664-6.146.331-3.023.597-5.548.266-2.193.4-3.887.132-1.695.265-2.426a.205.205 0 01.166-.232.318.318 0 01.3.1 21.208 21.208 0 012.258 3.421q1.462 2.558 3.157 5.947 1.694 3.39 3.521 7.176 1.827 3.787 3.355 7.043 1.13 2.327 1.861 3.987.73 1.662 1.33 2.79 1.062-2.125 2.159-4.617 1.096-2.492 2.16-4.95 2.323-5.382 4.916-10.897a72.68 72.68 0 015.515-9.834.278.278 0 01.266-.1c.089.023.133.1.133.232q.133.798.233 2.227.1 1.43.299 3.289.2 2.459.498 5.382.299 2.924.631 5.98.332 3.057.665 5.947.33 2.89.697 5.282.365 2.393.698 4.02a5.521 5.521 0 00.664 2.026 3.772 3.772 0 001.396 1.363 5.899 5.899 0 001.595.432 4.55 4.55 0 00.963.166 2.729 2.729 0 011.03.3zm21.306-3.355q-.198 1.43-.398 2.957c0 .133-.09.2-.266.2l-.066.066a2.614 2.614 0 01-.864.199q-1.53 0-3.09-.033-1.561-.034-3.089-.034-1.33 0-2.592-.032-1.263-.035-2.591-.034-1.795 0-3.621.034-1.83.033-3.621.099v-.532a2.821 2.821 0 001.627-.432 2.862 2.862 0 00.963-1.096 4.535 4.535 0 00.433-1.495 14.367 14.367 0 00.099-1.694v-27.642q0-1.328-.63-1.727a7.092 7.092 0 00-1.363-.664l-.897-.3a4.791 4.791 0 01-1.03-.498.312.312 0 01-.099-.3.204.204 0 01.232-.165h18.937a4.333 4.333 0 01.565-.233 4.248 4.248 0 00.565-.233c.221-.088.332 0 .332.266q-.199 1.728-.499 3.222-.299 1.495-.631 3.024a.241.241 0 01-.299.166c-.155-.022-.233-.1-.233-.233q-.134-2.325-1.594-3.057a7.973 7.973 0 00-3.588-.73h-5.25v13.621h7.708a2.6 2.6 0 00.864-.2l1.063-.398a6.755 6.755 0 011.462-.598q.333-.132.332.266-.067.797-.166 1.727-.099.931-.233 1.728c-.09.53-.155 1.086-.2 1.661q-.067.864-.199 1.66a.258.258 0 01-.166.267.253.253 0 01-.298-.066 1.612 1.612 0 01-.432-.665q-.1-.332-.232-.73l-.267-.798a1.879 1.879 0 00-.465-.73 2.396 2.396 0 00-1.229-.5q-.897-.164-1.928-.265a21.16 21.16 0 00-2.025-.1h-3.523v13.689a6.203 6.203 0 002.824 2.226 9.163 9.163 0 003.555.764 6.371 6.371 0 003.954-1.23 5.892 5.892 0 002.159-3.488l.532.133q-.333 1.53-.532 2.957zm40.517-19.941a.138.138 0 01-.171.094q-.133-.018-.133-.133a2.075 2.075 0 00-.687-1.773 3.117 3.117 0 00-1.905-.514 8.463 8.463 0 00-1.01.057q-.477.057-1.01.133a7.188 7.188 0 01-.84.115q-.456.039-.838.039v7.47h5.146a1.143 1.143 0 00.61-.228 2.52 2.52 0 00.533-.457.154.154 0 01.267.114q-.077 1.067-.21 2.077-.132 1.01-.324 2.001a.137.137 0 01-.17.096c-.09-.012-.134-.058-.134-.134q.037-1.258-.63-1.734a3.21 3.21 0 00-1.886-.476h-3.202v7.623a2.648 2.648 0 00.19.953 2.812 2.812 0 00.533.877 2.7 2.7 0 00.801.61 2.197 2.197 0 00.99.228v.305h-.265q-.42 0-.801-.037c-.254-.026-.521-.05-.8-.077a23.856 23.856 0 00-.8-.057q-.382-.019-.763-.019a7.76 7.76 0 00-.762.038l-.763.076a20.761 20.761 0 01-1.752.076h-.23c-.075 0-.12-.044-.133-.133a.139.139 0 01.095-.172 4.493 4.493 0 001.068-.286 1.185 1.185 0 00.552-.457 1.513 1.513 0 00.191-.724q.019-.439.019-1.125v-15.933q0-.877-.343-1.087a2.854 2.854 0 00-.8-.323 9.298 9.298 0 00-.477-.172 2.718 2.718 0 01-.59-.286c-.076-.05-.102-.108-.076-.171a.148.148 0 01.152-.096q2.402.115 4.841.115h2.706c.127 0 .26.007.4.019.14.013.287.019.439.019q.876.038 1.81 0a3.59 3.59 0 001.62-.42.115.115 0 01.172 0 .162.162 0 01.056.191zm25.716 37.34a17.048 17.048 0 01-.644 4.329.298.298 0 01-.572 0 7.934 7.934 0 00-1.11-2.898 5.568 5.568 0 00-1.895-1.753 8.073 8.073 0 00-2.576-.894 17.531 17.531 0 00-3.006-.25l-205.51.475v41.786a6.966 6.966 0 001.825 4.866 7.56 7.56 0 004.543 2.433.259.259 0 01.179.321c-.025.167-.108.25-.25.25q-2.505-.214-5.044-.357-2.543-.143-5.116-.143-1.861 0-3.686.107-1.823.108-3.684.25c-.143 0-.227-.082-.25-.25a.258.258 0 01.178-.321 13.766 13.766 0 002.684-.788 3.194 3.194 0 001.43-1.145 4.015 4.015 0 00.573-1.824q.107-1.11.108-2.827v-42.286H7.299a5.793 5.793 0 00-4.042 1.61 10.498 10.498 0 00-2.612 3.613c-.097.143-.204.204-.321.179a.22.22 0 01-.18-.25A6.633 6.633 0 010 368.814a10.93 10.93 0 01.358-2.79q.358-1.36.788-2.791.214-.715.43-1.396.213-.678.357-1.324c.096-.285.238-.333.43-.143a8.308 8.308 0 002.933 1.181 19.223 19.223 0 003.291.251l227.906-.476a4.94 4.94 0 001.252-.18q.679-.178 1.253-.321c.238-.047.51-.095.822-.143.31-.047.631-.096.966-.143.143 0 .214.096.214.286v.572q-.002 2.076-.072 4.472z" fill="#130a05"/><path d="M69.459 409.634q-3.61-.204-7.147-.204-1.294 0-2.553.034-1.26.036-2.62.102c-.137 0-.216-.078-.239-.238a.247.247 0 01.17-.306q2.108-.614 2.723-1.634.612-1.021.613-3.2v-14.157H39.51v14.294q0 4.289 4.424 4.697c.137 0 .205.09.205.272 0 .182-.068.272-.205.272h-2.11q-.953 0-2.042.068-.75 0-1.736.034-.987.035-1.734.034h-1.703q-.885 0-1.769-.068c-.182 0-.398-.01-.647-.034a7.092 7.092 0 00-.646-.034c-.138 0-.217-.079-.238-.238a.245.245 0 01.169-.306 12.477 12.477 0 001.77-.443 2.124 2.124 0 001.02-.68 2.388 2.388 0 00.443-1.124 12.344 12.344 0 00.102-1.77v-28.997a2.48 2.48 0 00-1.19-2.246 5.23 5.23 0 00-2.554-.817v-.544q2.859.204 5.65.205 1.157 0 2.314-.035 1.156-.032 2.315-.034h1.43c.135 0 .203.092.203.273 0 .182-.068.272-.203.272a3.564 3.564 0 00-2.212.75 2.492 2.492 0 00-.988 2.109v11.844h20.83v-11.572q0-1.634-.851-2.076a10.871 10.871 0 00-2.076-.783 13.048 13.048 0 01-.512-.137c-.158-.045-.33-.09-.51-.136a.246.246 0 01-.17-.306q.034-.238.238-.238 3.267.204 6.33.204 1.361 0 2.757-.034 1.396-.034 2.757-.102c.137 0 .215.08.24.238a.247.247 0 01-.171.306 7.53 7.53 0 00-2.383.782q-.886.512-.885 2.213v27.908q0 2.315 1.02 3.471 1.023 1.16 3.337 1.566zm36.507.511a10.477 10.477 0 01-2.485.306 8.707 8.707 0 01-3.675-.749 11.546 11.546 0 01-2.927-1.906 18.119 18.119 0 01-2.417-2.655q-1.12-1.496-2.143-3.062-.954-1.43-2.008-2.825a17.718 17.718 0 00-2.315-2.519 11.139 11.139 0 00-2.723-1.803 7.743 7.743 0 00-3.3-.681h-1.09a4.229 4.229 0 00-1.021.136v9.665a5.011 5.011 0 001.19 3.37 4.616 4.616 0 003.167 1.6v.544q-1.568-.135-3.098-.238-1.53-.103-3.097-.102-1.567 0-3.03.136-1.463.138-3.028.34c-.137.046-.238-.01-.306-.17a.275.275 0 01.101-.375 6.051 6.051 0 002.383-2.042 5.013 5.013 0 00.953-2.927V377.03a3.897 3.897 0 00-1.123-2.757 5.564 5.564 0 00-2.689-1.6.245.245 0 01-.17-.307c.022-.158.103-.238.238-.238h13.41a17.082 17.082 0 014.152.51 10.893 10.893 0 013.608 1.6 8.116 8.116 0 012.518 2.859 8.794 8.794 0 01.953 4.22 11.626 11.626 0 01-1.803 6.194 24.482 24.482 0 01-4.05 5.038 20.919 20.919 0 011.633 2.076q.883 1.26 1.905 2.62 1.497 2.042 3.166 4.186a34.135 34.135 0 003.505 3.88 15.94 15.94 0 003.812 2.723 6.794 6.794 0 004.016.715l.205.545a12.696 12.696 0 01-2.417.85zM90.65 380.296a10.404 10.404 0 00-1.532-3.199 8.586 8.586 0 00-2.517-2.348 6.507 6.507 0 00-3.473-.918 13.245 13.245 0 00-1.633.101 5.418 5.418 0 00-1.566.443v16.949a19.908 19.908 0 002.246.272q1.088.069 2.247.068 3.81 0 5.274-2.076 1.464-2.075 1.463-5.752a12.705 12.705 0 00-.51-3.54zm49.888 19.026a18.795 18.795 0 01-4.255 5.82 19.268 19.268 0 01-6.159 3.812 20.21 20.21 0 01-7.386 1.361 15.973 15.973 0 01-6.637-1.566 25.385 25.385 0 01-6.296-4.084 23.167 23.167 0 01-4.731-5.717 12.678 12.678 0 01-1.872-6.467 34.68 34.68 0 01.918-8.543 14.593 14.593 0 018.34-10.142 36.464 36.464 0 018.168-2.621l.884-.068a16.959 16.959 0 018.1 1.259 19.8 19.8 0 016.535 4.492 21.228 21.228 0 014.392 6.84 21.94 21.94 0 011.599 8.305 16.87 16.87 0 01-1.6 7.319zm-18.478-25.965a16.753 16.753 0 00-1.695.112v34.364a13.405 13.405 0 001.695.25zm4.056 34.547a12.231 12.231 0 003.362-1.095 13.41 13.41 0 004.457-3.54 15.282 15.282 0 002.724-5.138 20.583 20.583 0 00.917-6.194 23.464 23.464 0 00-.985-6.672 19.433 19.433 0 00-2.927-5.99 15.407 15.407 0 00-4.765-4.288 11.72 11.72 0 00-2.783-1.158zm-1.18-34.338a14.053 14.053 0 00-1.696-.19v34.76h.11q.816 0 1.587-.073zm-5.741.088a13.002 13.002 0 00-7.485 4.431 15.978 15.978 0 00-2.825 5.104 18.938 18.938 0 00-.987 6.16 22.9 22.9 0 001.021 6.74 19.506 19.506 0 003.03 6.023 16.198 16.198 0 004.867 4.357 11.775 11.775 0 002.38 1.055zm63.321-.744c-.022-.022-.08-.01-.17.035q-.953.273-2.007.681a1.45 1.45 0 00-1.055 1.43l.068 16.405v2.79q0 3.948-.136 7.794-.138 3.846-.476 7.726a.287.287 0 01-.171.238.227.227 0 01-.307-.034q-3.267-2.791-6.534-6.024-3.267-3.232-6.433-6.602-3.165-3.37-6.228-6.807-3.063-3.437-5.854-6.705-.952-1.021-1.7-1.94-.752-.92-1.703-1.94a32.043 32.043 0 00-.204 3.54q0 2.587.068 5.173.068 2.587.204 5.173.135 2.587.205 5.173.066 2.587.068 5.241a7.012 7.012 0 00.204 1.872 3.49 3.49 0 00.51 1.123 1.681 1.681 0 00.749.579 4.102 4.102 0 00.919.238q.544.137 1.09.306a4.753 4.753 0 011.292.715.325.325 0 01.102.307.21.21 0 01-.239.17q-.68-.068-1.327-.137l-1.327-.136q-.954-.136-1.94-.205-.989-.067-1.94-.067a19.5 19.5 0 00-2.52.17q-1.292.17-2.586.374a.23.23 0 01-.306-.136.27.27 0 01.034-.34 7.587 7.587 0 01.988-.749c.294-.18.578-.34.85-.477a4.974 4.974 0 001.464-1.122 3.342 3.342 0 00.647-2.281v-31.856l.544-1.09a.443.443 0 01.204-.204.135.135 0 01.205.068q7.418 7.694 14.363 15.145 6.942 7.453 14.09 15.418v-.204q0-3.13-.035-6.194-.035-3.063-.101-6.262-.07-2.926-.137-6.229-.069-3.3-.067-6.228a6.08 6.08 0 00-.24-1.872 2.543 2.543 0 00-.646-1.09 2.221 2.221 0 00-.885-.51 7.34 7.34 0 00-.953-.204 9.762 9.762 0 01-.987-.17 1.596 1.596 0 01-.783-.442.27.27 0 01-.033-.341c.069-.135.147-.18.238-.135a22.82 22.82 0 002.926.203h2.86c.59 0 1.19-.01 1.803-.034a17.77 17.77 0 011.872.034c.227 0 .477.013.749.035.272.023.521.034.75.034l.135.545c-.091.045-.147.057-.17.033zm25.773 33.083q-.205 1.464-.408 3.029c0 .136-.093.204-.273.204l-.068.068a2.672 2.672 0 01-.885.204q-1.566 0-3.165-.034-1.602-.034-3.165-.034-1.363 0-2.654-.033-1.295-.035-2.655-.035-1.839 0-3.71.035-1.873.034-3.71.101v-.544a2.893 2.893 0 001.668-.443 2.935 2.935 0 00.987-1.123 4.642 4.642 0 00.442-1.532 14.626 14.626 0 00.102-1.735v-28.317q0-1.36-.647-1.769a7.202 7.202 0 00-1.395-.681l-.919-.307a4.893 4.893 0 01-1.055-.51.319.319 0 01-.101-.307c.022-.112.101-.17.238-.17h19.399a4.445 4.445 0 01.578-.238 4.259 4.259 0 00.578-.239c.227-.09.342 0 .342.273q-.207 1.77-.512 3.301-.305 1.531-.646 3.097a.248.248 0 01-.307.17c-.158-.022-.238-.102-.238-.238q-.137-2.381-1.633-3.132a8.175 8.175 0 00-3.676-.748h-5.377v13.954h7.895a2.659 2.659 0 00.885-.204l1.089-.409a6.922 6.922 0 011.498-.612q.34-.136.34.272-.068.817-.17 1.77-.103.953-.24 1.77-.136.815-.203 1.701-.068.885-.204 1.702a.275.275 0 01-.477.204 1.648 1.648 0 01-.442-.68 32.914 32.914 0 00-.238-.75c-.092-.271-.182-.544-.272-.816a1.925 1.925 0 00-.477-.748 2.444 2.444 0 00-1.26-.511q-.918-.169-1.973-.272a21.611 21.611 0 00-2.076-.102h-3.609v14.022a6.357 6.357 0 002.894 2.28 9.395 9.395 0 003.64.783 6.527 6.527 0 004.051-1.259 6.034 6.034 0 002.212-3.574l.545.136q-.34 1.567-.543 3.03zm25.108-2.009a12.197 12.197 0 01-3.2 3.37 15.853 15.853 0 01-4.288 2.178 14.098 14.098 0 01-4.458.783 10.28 10.28 0 01-2.144-.239 6.682 6.682 0 01-2.043-.782 4.627 4.627 0 01-1.498-1.396 3.733 3.733 0 01-.577-2.144 7.956 7.956 0 01.17-1.634q.168-.816.306-1.566l.34-1.633c0-.136.09-.204.273-.204.18 0 .272.068.272.204v1.021a5.047 5.047 0 00.612 2.518 6.517 6.517 0 001.566 1.872 6.223 6.223 0 002.211 1.158 8.931 8.931 0 002.554.374 8.351 8.351 0 002.518-.408 7.92 7.92 0 002.35-1.191 6.636 6.636 0 001.735-1.906 4.715 4.715 0 00.68-2.485 5.782 5.782 0 00-.612-2.552 14.11 14.11 0 00-1.635-2.553 29.858 29.858 0 00-2.314-2.586q-1.293-1.293-2.654-2.587-1.43-1.361-2.86-2.757a24.067 24.067 0 01-2.518-2.859 16.16 16.16 0 01-1.77-2.96 7.322 7.322 0 01-.68-3.063 6.311 6.311 0 011.293-3.982 10.323 10.323 0 013.2-2.723 15.704 15.704 0 014.152-1.566 18.78 18.78 0 014.152-.51 17.103 17.103 0 014.969.68c.136.092.205.182.205.272q-.274 3.336-.817 6.875a.284.284 0 01-.545 0 8.976 8.976 0 00-2.077-4.084 5.187 5.187 0 00-4.05-1.702 5.988 5.988 0 00-4.32 1.668 5.642 5.642 0 00-1.737 4.253 5.55 5.55 0 00.579 2.52 11.297 11.297 0 001.497 2.246 18.994 18.994 0 002.144 2.143q1.226 1.057 2.519 2.145 1.43 1.158 2.825 2.417a20.984 20.984 0 012.484 2.654 13.659 13.659 0 011.77 2.961 8.477 8.477 0 01.68 3.403 7.936 7.936 0 01-1.26 4.357zm-31.059-63.694a10.438 10.438 0 01-2.36 3.229 10.709 10.709 0 01-3.418 2.114 11.225 11.225 0 01-4.098.756 8.85 8.85 0 01-3.682-.869 14.058 14.058 0 01-3.493-2.266 12.847 12.847 0 01-2.625-3.172 7.04 7.04 0 01-1.039-3.587 19.25 19.25 0 01.511-4.74 8.093 8.093 0 014.626-5.627 20.199 20.199 0 014.532-1.454l.491-.038a9.419 9.419 0 014.494.698 10.98 10.98 0 013.625 2.493 11.8 11.8 0 012.436 3.795 12.167 12.167 0 01.887 4.607 9.33 9.33 0 01-.887 4.06zm-10.251-14.406a9.417 9.417 0 00-.94.063v19.065a7.482 7.482 0 00.94.139zm2.25 19.167a6.79 6.79 0 001.865-.607 7.438 7.438 0 002.473-1.964 8.501 8.501 0 001.511-2.85 11.423 11.423 0 00.51-3.438 12.978 12.978 0 00-.549-3.7 10.759 10.759 0 00-1.622-3.324 8.535 8.535 0 00-2.644-2.38 6.546 6.546 0 00-1.544-.642v18.905zM193.682 326a8.01 8.01 0 00-.94-.106v19.286h.06c.302 0 .595-.013.88-.04zm-3.186.05a7.22 7.22 0 00-4.15 2.458 8.83 8.83 0 00-1.568 2.831 10.481 10.481 0 00-.548 3.418 12.676 12.676 0 00.567 3.738 10.792 10.792 0 001.68 3.343 8.973 8.973 0 002.7 2.417 6.538 6.538 0 001.32.586zm46.117 47.548v1.996h-.38v-1.996h-.721v-.307h1.822v.307zm3.344 1.996v-1.923h-.012l-.754 1.923h-.24l-.756-1.923h-.01v1.923h-.381v-2.303h.587l.688 1.75.676-1.75h.582v2.303z" fill="#130a05"/><path fill="#b6a366" d="M135.05 285.454h3.46v-12.981l6.577 12.28.371.701h3.47v-.717h-.005V266.01h-3.46v12.983l-.005-.01v-12.972h-.433v12.163l-6.13-11.446-.384-.718h-3.46v19.434l-.01.01zm-42.235-4.96v-2.282h9.813v-4.298h.025l-.025-.479v-.183h-.01l-.003-.057h-9.8v-1.96h9.838v-5.225h-13.89v19.444h13.865v-4.242l.003-.718h-.003zm15.421 0h-4.016v4.96h13.842v-4.242h.008l-.008-.337v-.381h-4.005v-9.258h4.028v-5.226h-13.868v.718h.003v4.242h.005v.264l-.005.002h4.002v9.234zm25.248-14.483h-13.866v19.443h13.872v-12.257h-6.93v.717h.003v4.564h3.026v2.016h-6.077v-9.258h9.996v-5.225h-.025zm-6.302 12.202h2.842zm23.308-.093h-.025v6.617h-.005v.717h13.871v-4.96l-8.864-9.258h5.41v2.318h3.479v-.717h-.018v-6.827h-13.873v4.96l9.21 9.524h-5.749v-2.374h-2.817zm-63.333-12.109h-13.89v19.443h3.46v-7.242h3.082l3.576 6.693.291.55h3.463l-.308-.578-.074-.14-3.48-6.525h3.857l.014-7.242h.01v-4.959zm-10.012 7.184l.016-1.96h6.518v2.017h-.006v-.058z"/><path fill="#282520" d="M175.23 273.607h61.881v4.401H175.23zm-174.892 0h61.881v4.401H.338z"/></svg>